<?xml version="1.0" standalone="no"?><!DOCTYPE svg PUBLIC "-//W3C//DTD SVG 1.1//EN" "http://www.w3.org/Graphics/SVG/1.1/DTD/svg11.dtd"><svg t="1643887361325" class="icon" viewBox="0 0 1024 1024" version="1.1" xmlns="http://www.w3.org/2000/svg" p-id="753" xmlns:xlink="http://www.w3.org/1999/xlink" width="200" height="200"><defs><style type="text/css"></style></defs><path d="M821.6 219.2C704 122.24 565.92 83.52 441.6 100.16 180.64 135.2 68.64 359.2 82.56 488.16S118.56 675.2 256 818.24s366.08 127.04 487.04 58.08 180-160 195.04-312.96 1.44-247.2-116.48-344.16z m86.08 311.52a496 496 0 0 1-55.04 199.52 340.16 340.16 0 0 1-89.6 101.76 226.88 226.88 0 0 1-40.96 24s-53.44-60-56-60.48-11.04 4-8.96 6.56A787.36 787.36 0 0 1 709.12 864a192 192 0 0 1-27.52 7.52s-48-50.56-49.44-50.56-9.92 3.04-8.96 6.08 45.44 46.08 42.56 48-135.52 32-225.92 5.44-146.4-80-213.6-145.6S105.92 549.92 115.2 448s74.72-204.64 147.36-249.28a487.2 487.2 0 0 1 199.52-72.96c90.24-14.88 203.04 20 282.56 70.56s127.04 112 147.04 166.56 22.4 93.92 15.84 167.84zM544 267.84c11.36 8 76.64 0 98.72-12s16-41.92-1.28-57.28-69.44-3.68-82.72 1.28a86.08 86.08 0 0 0-36.64 36.64c-4.8 6.72 9.76 23.36 21.92 31.36z m58.08-61.28c21.44 0 33.28 6.08 34.72 13.28s-8 18.08-21.28 22.72a131.2 131.2 0 0 1-56 4.64 48 48 0 0 1-11.36-16 88.48 88.48 0 0 1 53.12-24.64z m14.08 153.28c-20 16-33.92 39.36-26.72 55.36s23.36 20 52 11.36a93.76 93.76 0 0 0 49.28-40.64c4-6.72-3.36-16-16-23.36s-9.12-23.04-16-24c-15.52-2.56-23.52 6.08-43.52 21.28z m42.08 17.28c10.72 6.72 16 4 10.08 11.36a80 80 0 0 1-39.36 22.72c-10.72 0-19.36-2.72-13.92-13.92s21.28-33.92 30.72-36c4.48-1.28 0.8 9.28 11.52 16z m18.72 200.64c-3.36 8 17.28 24 28.64 26.72a136 136 0 0 1 24.64 7.36 110.88 110.88 0 0 0 40 7.36c13.28 0 6.72-14.72 10.08-21.28s10.72-1.92 20-2.72 30.72-32 30.72-32-3.36-16-5.92-26.72 4.64-36.64 2.08-46.72-13.92-8-29.92-10.72-26.72-13.28-37.28-10.72-8.64 16-17.28 22.72-27.68 0-36 5.28c-16 8.64-8.64 34.72-5.28 46.72s-22.24 26.88-25.6 34.88z m53.28-26.72c0-12-3.36-29.92 1.28-32 8-3.36 21.28 8 29.28 2.08s8.64-22.08 18.08-21.28 20.64 0 18.08 5.28-16 16-10.72 28 13.28 26.08 10.08 30.72-16-5.28-26.72 6.08-8.64 21.28-16 20.64-43.36-11.36-40-16 15.04-11.36 15.68-23.36z m11.36 100.64c6.72-4.64 0-10.72-1.92-12.64s-14.72 8.64-28.64 8-14.72-8-23.36-14.72a34.56 34.56 0 0 0-33.92 4.64c-1.28 2.08-4 18.72 7.36 19.36s13.28-6.72 23.36-5.92 20 12 29.28 14.08 20.16-8.48 26.88-12.64z m8.64 62.08c-32 13.28-30.72 48-1.28 56.64s48-5.92 44-32a29.12 29.12 0 0 0-43.68-24.48z m26.72 32c-3.36 12-20.64 6.72-25.92 4s-5.28-16 8-21.28a14.08 14.08 0 0 1 16.8 17.44z m2.08-109.92a18.72 18.72 0 0 0-9.92 14.08c0 5.28 56 48 64 51.36s5.28-2.72 8-8-54.72-60.16-63.2-57.44z m42.08-30.72c-4-3.36-9.92 3.36-11.36 7.36a394.24 394.24 0 0 0 44 48c6.08 4 6.72-1.92 9.28-6.72s-39.2-45.76-43.2-48.48zM848 570.56c-4.64 0-5.92 10.08-5.92 10.08 2.72 1.28 28.64 28.64 33.28 28.64s2.72-3.36 3.36-10.72-26.88-27.36-30.72-28z m17.28-48c-1.92 0-6.72 12-4 12s18.72 23.36 23.36 24.64 1.28-1.28 1.28-9.92-19.36-27.36-21.92-27.36z m-38.72-101.28a32 32 0 0 0 32-45.28c-8.64-21.28-26.72-20.8-44-13.92a28.32 28.32 0 0 0-21.28 27.36c-3.36 13.76 8 29.12 32.64 31.2z m-6.4-45.44c8.48-3.36 17.6-3.68 21.92 6.88a16 16 0 0 1-16 22.56c-12.32-0.96-17.92-8.64-16.96-16a14.08 14.08 0 0 1 10.4-14.08zM341.28 205.28c4.64 0 3.36-2.72 12-6.72s8 2.72 28 10.08a49.6 49.6 0 0 0 40-4.64 22.56 22.56 0 0 0 12-8c4-4 0-4-4.64-6.72s-9.28 4.64-34.72 5.28-22.72-6.72-35.36-9.28-20.48 7.84-24.64 9.28 2.08 10.08 7.36 10.72z m16 92.64c-12.64 13.28-23.36 50.72 22.72 70.72A120.48 120.48 0 0 0 499.2 352a38.56 38.56 0 0 0-5.92-57.28c-12.64-8-13.92-16-24.64-24.64s-29.44-13.92-60.64-5.28a121.76 121.76 0 0 0-50.72 33.12z m86.72-1.28c16 0 11.36-9.28 24 6.08s18.72 22.08 14.08 30.72a77.6 77.6 0 0 1-80 16c-34.72-16-32-27.36-25.28-37.92a88 88 0 0 1 33.28-29.28c7.84-3.68 18.56 13.6 33.76 14.4zM312.64 400c-7.36-9.28-44.32 0-56.64 6.08a35.04 35.04 0 0 0-21.92 34.08c1.28 8.64 6.72 10.72 26.72 16s30.08-9.92 40.64-18.72 18.56-28.8 11.2-37.44z m-17.92 25.28c-9.28 7.36-20 21.28-30.72 19.36s-26.72-16 2.72-28.64a53.28 53.28 0 0 1 30.72-5.28c6.56 1.92 6.56 6.56-2.88 13.92z m130.08 66.08C368 519.2 368 544 384 560s66.08 0 77.28-32a28.16 28.16 0 0 0-36.64-37.44z m22.08 32c-5.28 16-34.72 32-45.28 28.64s-21.28-25.28 22.08-46.72c7.2-4.48 28.16 0.64 22.88 17.28z m146.08 6.72c-34.72 14.72-18.72 38.72-1.28 45.28s42.72-3.36 43.36-24-32.8-26.24-43.04-22.08z m24 22.24a13.44 13.44 0 0 1-18.4 10.24c-7.36-2.88-14.08-12.96 0-19.2 4.32-2.56 18.24-0.64 18.08 8.16zM395.84 752c-4.64 0-4.64 4.64-7.36 10.08a29.28 29.28 0 0 1-23.36 18.72c-14.72 1.28-27.84-18.72-32-16-9.92 9.28-8 16 6.08 24a45.76 45.76 0 0 0 45.28 0c11.36-7.36 14.72-25.92 16-32s-0.48-4.8-4.64-4.8z m222.72-81.92c-4.64-4-1.92-12.64-1.92-17.92s-17.92-10.72-30.72-11.36a65.6 65.6 0 0 1-22.72-6.72 78.4 78.4 0 0 0-20 6.72c-3.36 1.28-8-29.92-9.92-36.64s-21.92-4-30.72 0-1.28 21.28-1.28 24.64-3.36 4.64-7.36 7.36-11.36-5.28-16-8-20 6.08-24.64 10.72 4 24 6.08 27.36-40-1.28-44 0-7.36 6.08-9.28 10.72 4.64 6.72 14.08 13.28a76.48 76.48 0 0 1 17.28 32c0 2.72-5.92 0-18.72 0s-17.28-0.96-17.28 3.36a25.6 25.6 0 0 0 16 16 208 208 0 0 1 29.28 3.36c6.72 2.08 8 32 8 32a46.88 46.88 0 0 0 10.08 14.08c7.36 7.36 46.72-21.28 53.28-24s13.28 2.72 32 7.36 8.64 0 28-6.72 12.64 0 19.36 6.08 5.28 4.64 18.72 3.36a97.6 97.6 0 0 1 25.28 2.08c10.72 0 18.08-7.36 26.72-28.64a56.64 56.64 0 0 0-8.64-56c-11.68-19.36-35.52-20-40.96-24z m18.72 72a35.36 35.36 0 0 1-9.92 11.36s-29.44-17.44-37.44-14.24a238.56 238.56 0 0 1-24.64 9.28l-28-1.92a52.16 52.16 0 0 0-23.36 4c-5.92 2.72-20.64 16-26.72 11.36a27.04 27.04 0 0 1-12-20.64 442.24 442.24 0 0 0-13.92-41.92c0-5.44 16-6.72 17.28-10.72s4.64-16 7.36-16a160 160 0 0 0 24-12c4.64-4 6.72-9.92 11.36-8s8 18.08 18.08 13.28A37.28 37.28 0 0 1 560 659.2c12.64-1.28 34.08 4 32 6.72s-7.36 22.08-2.72 25.28 46.08 16 50.08 22.08a44.32 44.32 0 0 1-2.08 29.28z m-149.92-40c1.28 4.64 20.64 38.72 20.64 38.72a37.28 37.28 0 0 0 16-4.64c6.08-4-22.72-33.28-24.64-37.28s-12.16 3.68-12.16 3.68z m39.36-13.28c-4 0-7.36 6.08-7.36 6.08a433.44 433.44 0 0 0 32 35.36 30.4 30.4 0 0 0 17.28-3.36c4-2.24-38.08-37.6-42.08-37.6z m75.36 161.28a183.68 183.68 0 0 1-37.92 0c-7.36-1.28-5.28-3.36-12.64-6.72s-12 4.64-18.72 8-10.72-2.72-17.92-6.72a38.4 38.4 0 0 0-29.28 6.72 12 12 0 0 0 5.28 14.08c7.36 4 11.36-1.28 18.72-4s2.08 2.72 14.72 6.72 20.64-10.72 26.72-8.64a140 140 0 0 0 33.28 6.72 52.64 52.64 0 0 0 20.64-3.36c1.6-1.6 1.6-13.6-3.04-12.32z m110.72-68.64c-5.92-4-19.04 1.12-16 6.72a243.84 243.84 0 0 0 36 39.36c7.36 3.36 7.36-2.72 10.72-5.92s-24.96-35.68-30.88-39.68zM505.92 432c4.64 0 3.36-2.72 4.64-5.92s-9.28-8.64-22.72-12-13.92 6.08-32 8-28.48-10.24-34.72-6.72-13.28 9.28-9.28 16 6.72 2.08 14.72 0 12.64 4.64 28 5.28 14.72-2.72 22.72-5.92 24 1.28 28.64 1.28z m253.28-128c10.72 5.28 26.72-4 24.64-13.92a16 16 0 0 0-23.36-10.72c-7.2 2.56-11.84 17.92-1.28 23.2z m-460-10.72c10.72 5.28 26.72-4 24.64-13.92a16 16 0 0 0-23.36-10.72c-7.2 3.36-12.48 19.36-1.28 24.64z m13.28 306.08c-7.36 4-12 19.36-1.28 24.64s26.72-4 24.64-13.92a16 16 0 0 0-23.2-10.88z m-14.72 114.08c-7.36 4-12 19.36-1.28 24.64s26.72-4 24.64-13.92a16 16 0 0 0-23.2-10.88z m-80-208c4-1.92 0-6.72-2.72-13.28s-7.36-1.92-16 0-35.52-7.36-36.64 0c0 4 0 19.36 8.64 18.08a108.8 108.8 0 0 1 20.64 0 96 96 0 0 0 26.24-4.32z m-24 74.72a28.48 28.48 0 0 0-4.64 17.28c0 3.36 29.28 2.08 39.36 1.28s6.08-7.36 2.72-14.72-33.44-8-37.28-3.36z" fill="#1D1D1B" p-id="754"></path></svg>